# xmcd CD database file
#
# Track frame offsets:
#	150
#	11672
#	22629
#	44112
#	58294
#	78050
#	96164
#	105027
#	117112
#	129376
#	151408
#	163827
#
# Disc length: 2375 seconds
#
# Revision: 0
# Processed by: cddbd v1.5.2PL0 Copyright (c) Steve Scherf et al.
# Submitted via: jetAudio 7
#
DISCID=8809450c
DTITLE=NIKITA-BLUES - LIVE
DYEAR=1900
DGENRE=Blues
TTITLE0=Cocaine
TTITLE1=Love Struck Baby
TTITLE2=Another Love
TTITLE3=Pride and Joy
TTITLE4=Hoochie Coochie man
TTITLE5=La grange
TTITLE6=SRV motif
TTITLE7=Blue Suede Shoes
TTITLE8=Tryin' to do right
TTITLE9=Europa
TTITLE10=Mary had a little lumb
TTITLE11=Sweet home Chicago
EXTD=
EXTT0=
EXTT1=
EXTT2=
EXTT3=
EXTT4=
EXTT5=
EXTT6=
EXTT7=
EXTT8=
EXTT9=
EXTT10=
EXTT11=
PLAYORDER=
